# xmcd
#
# Track frame offsets:
#	300
#	27424
#	63758
#	93223
#	118755
#	145080
#	175004
#	205869
#	235705
#	261960
#	286173
#
# Disc length: 4216 seconds
#
# Revision: 2
# Processed by: cddbd v1.5.2PL0 Copyright (c) Steve Scherf et al.
# Submitted via: audiograbber 1.83.01
#
DISCID=9310740b
DTITLE=CD Pool - Club January 2011 CD1
DYEAR=2011
DGENRE=Dance
TTITLE0=David Guetta Ft Rihanna - Who's That Chick (Afrojack Dub Mix)
TTITLE1=eSquire - Sax (Sharp Boys Nu Skool Remix)
TTITLE2=Roger Sanchez Ft Far East Movement - 2gether (Blacktron Vs Antoine Clar
TTITLE2=aman Re-Edit)
TTITLE3=Robbie Rivera Ft Ozmosis - Keep On Going (Robbie's Dirty Juicy Mix)
TTITLE4=Elektrokid - Why Not (Original Mix)
TTITLE5=LaSelva - Now That I Found You (Mobin Master Safari Remix)
TTITLE6=YUG and Andy Reid Ft Jill Peacock - Already There (YUG Remix)
TTITLE7=Plastic Surgery Ft Vincent Parker - Music Is The Answer 2011 (Jack and Jo
TTITLE7=y Remix)
TTITLE8=Vision Control - One S**t Wonder (Original Mix)
TTITLE9=Fratty and Mancino - Free Emotion (Fratty Instrumental Mix)
TTITLE10=How2 Groove? - On The Dancefloor (Vocal Mix)
EXTD=
EXTT0=
EXTT1=
EXTT2=
EXTT3=
EXTT4=
EXTT5=
EXTT6=
EXTT7=
EXTT8=
EXTT9=
EXTT10=
PLAYORDER=
